# Blender v3.1.2 OBJ File: 'warped_plane.blend'
# www.blender.org
mtllib warped_plane.mtl
o Plane
v -10.001247 0.393044 10.001604
v 10.017116 0.770388 10.023364
v -10.034986 0.482666 -10.072797
v 10.000000 0.038044 -10.000000
v -9.959428 0.856351 -8.364946
v -10.030936 0.998197 -6.438035
v -10.020771 0.994713 -4.575682
v -10.006404 0.897155 -2.735924
v -10.000211 0.831054 -0.909434
v -10.000000 0.886895 0.909091
v -9.999571 0.962538 2.727516
v -9.989867 1.033517 4.559471
v -9.926216 0.901362 6.385215
v -10.000121 0.767087 8.205304
v -8.187820 0.607545 10.007895
v -6.366998 0.568773 10.008320
v -4.545079 0.307929 10.000871
v -2.727272 0.096703 10.000000
v -0.909091 0.010655 10.000000
v 0.909941 0.071440 10.003100
v 2.731223 0.292231 10.013056
v 4.551075 0.654104 10.022904
v 6.372899 0.978763 10.030070
v 8.198269 1.231263 10.034519
v 10.027925 1.288079 8.225938
v 10.035616 1.112184 6.395381
v 10.023609 0.768241 4.572587
v 10.015825 0.637362 2.746982
v 10.009614 0.542979 0.920610
v 10.008208 0.466691 -0.905210
v 10.061106 0.601358 -2.725122
v 10.110694 0.647106 -4.552239
v 10.068602 0.431451 -6.371017
v 10.004469 0.135428 -8.182361
v 8.181818 0.209251 -10.000000
v 6.363636 0.458702 -10.000001
v 4.545384 0.615555 -10.000062
v 2.727212 0.559568 -10.000054
v 0.909045 0.508498 -10.000040
v -0.909122 0.458218 -10.000027
v -2.730253 0.483803 -10.013939
v -4.575308 0.781454 -10.072123
v -6.442127 1.004446 -10.095429
v -8.391385 0.981535 -9.984544
v -8.145267 1.058866 7.858055
v -7.950827 0.981335 5.782094
v -7.708778 1.072723 4.231118
v -8.257668 1.057851 3.055043
v -7.839109 1.076885 1.163396
v -8.174007 1.290529 -0.912972
v -8.205825 1.558524 -2.757120
v -8.248443 1.547740 -4.506283
v -8.177651 1.315516 -6.291956
v -8.202137 1.212061 -8.246601
v -6.444302 0.981697 8.302257
v -6.559785 1.091602 6.481739
v -6.476956 1.393639 4.687518
v -6.463397 1.394999 2.808674
v -5.788054 1.555862 1.026646
v -6.007804 1.358332 -0.637865
v -6.294371 1.654806 -2.665098
v -6.758218 1.680492 -4.179516
v -6.423933 1.448622 -5.787279
v -6.078459 1.197392 -8.024650
v -4.650405 0.751031 8.409057
v -4.872602 0.903238 6.945336
v -4.879559 1.065108 5.284533
v -4.898306 1.284787 3.442343
v -4.950133 1.556629 1.822974
v -4.092782 1.668086 -0.110504
v -4.171340 1.466659 -2.409281
v -4.757438 1.505345 -4.692768
v -4.485986 1.232786 -6.974539
v -4.162137 0.991188 -8.629816
v -2.756214 0.283159 8.247143
v -3.255267 0.875653 7.295647
v -2.950047 1.209463 5.990297
v -2.802400 1.468734 4.170186
v -2.703487 1.439720 1.908426
v -1.608989 1.374718 -0.068365
v -1.821341 1.465610 -2.160050
v -2.319918 1.189416 -4.276188
v -2.722850 1.175755 -6.442391
v -2.705494 0.886797 -8.260083
v -0.916110 0.134733 8.269689
v -1.282700 0.639334 7.006442
v -0.958979 1.044917 5.125468
v -0.670796 1.397815 3.034751
v -0.273743 1.555156 1.060437
v 0.075207 1.639483 -0.893793
v 0.490861 1.272782 -2.815364
v -0.280881 1.458321 -4.332350
v -0.852646 1.027568 -6.315584
v -0.909009 0.830197 -8.181712
v 0.879311 0.347913 8.210754
v 0.920251 0.723696 6.298014
v 1.101309 1.376416 3.855669
v 1.005504 1.436952 1.814832
v 1.145540 1.257485 0.160835
v 1.345896 1.553395 -1.610589
v 1.763476 1.334766 -3.106104
v 1.702662 1.519424 -4.542899
v 1.008680 1.198472 -6.270902
v 0.909270 0.962296 -8.181432
v 2.784295 0.546310 8.110281
v 3.016464 1.227844 5.547486
v 3.314899 1.749873 2.716025
v 3.026091 1.433812 0.856937
v 2.891731 1.111594 -0.743591
v 2.853016 1.260899 -2.410426
v 2.784739 1.274667 -3.919366
v 3.135620 1.579642 -5.056143
v 2.927610 1.546855 -6.274338
v 2.733842 1.147997 -8.176227
v 5.113654 0.955788 7.623774
v 4.989110 1.128940 4.874713
v 5.306241 1.342518 3.139747
v 4.944723 1.345766 1.689700
v 4.826906 1.146855 0.090646
v 4.653031 1.474524 -1.657730
v 4.176518 1.148004 -3.364437
v 3.930496 1.353771 -4.599633
v 4.408140 1.675050 -5.835200
v 4.578228 1.512367 -8.169654
v 7.203066 1.224783 8.180017
v 6.792888 1.205013 6.093022
v 6.689239 1.140026 4.051711
v 6.552394 1.046288 2.371611
v 6.449825 0.989121 0.773613
v 6.436122 1.429140 -0.933084
v 6.168241 1.759031 -2.714797
v 5.422056 1.433576 -4.545545
v 6.244213 1.610053 -6.293227
v 6.418836 1.301126 -8.191019
v 8.362508 1.513864 8.329351
v 8.396934 1.402747 6.968896
v 8.332067 1.336468 4.657400
v 8.173930 0.891899 2.756632
v 7.850024 0.871388 1.357007
v 8.144777 0.892356 -0.126009
v 8.152293 1.344261 -1.946822
v 7.821249 1.528514 -4.159733
v 8.332418 1.393978 -6.371129
v 8.220364 0.652942 -8.189486
vt 1.000000 0.909091
vt 0.909091 1.000000
vt 0.909091 0.909091
vt 0.000000 0.909091
vt 0.090909 1.000000
vt 0.000000 1.000000
vt 0.090909 0.909091
vt 0.181818 1.000000
vt 0.181818 0.909091
vt 0.272727 1.000000
vt 0.272727 0.909091
vt 0.363636 1.000000
vt 0.363636 0.909091
vt 0.454545 1.000000
vt 0.454545 0.909091
vt 0.545455 1.000000
vt 0.545455 0.909091
vt 0.636364 1.000000
vt 0.636364 0.909091
vt 0.727273 1.000000
vt 0.818182 0.909091
vt 0.727273 0.909091
vt 0.818182 1.000000
vt 0.090909 0.000000
vt 0.000000 0.090909
vt 0.000000 0.000000
vt 0.090909 0.090909
vt 0.000000 0.181818
vt 0.090909 0.181818
vt 0.000000 0.272727
vt 0.090909 0.363636
vt 0.000000 0.363636
vt 0.090909 0.454545
vt 0.000000 0.454545
vt 0.090909 0.545455
vt 0.000000 0.545455
vt 0.090909 0.636364
vt 0.000000 0.636364
vt 0.090909 0.727273
vt 0.000000 0.727273
vt 0.090909 0.818182
vt 0.000000 0.818182
vt 0.181818 0.090909
vt 0.181818 0.181818
vt 0.181818 0.272727
vt 0.090909 0.272727
vt 0.181818 0.363636
vt 0.181818 0.545455
vt 0.181818 0.636364
vt 0.181818 0.727273
vt 0.181818 0.818182
vt 0.181818 0.000000
vt 0.272727 0.090909
vt 0.272727 0.181818
vt 0.272727 0.272727
vt 0.272727 0.363636
vt 0.272727 0.454545
vt 0.181818 0.454545
vt 0.272727 0.545455
vt 0.272727 0.636364
vt 0.272727 0.727273
vt 0.272727 0.818182
vt 0.272727 0.000000
vt 0.363636 0.090909
vt 0.363636 0.181818
vt 0.363636 0.272727
vt 0.363636 0.363636
vt 0.363636 0.454545
vt 0.363636 0.636364
vt 0.363636 0.727273
vt 0.363636 0.818182
vt 0.363636 0.000000
vt 0.454545 0.090909
vt 0.454545 0.181818
vt 0.454545 0.272727
vt 0.454545 0.363636
vt 0.454545 0.454545
vt 0.363636 0.545455
vt 0.454545 0.545455
vt 0.454545 0.727273
vt 0.454545 0.818182
vt 0.545455 0.000000
vt 0.454545 0.000000
vt 0.545455 0.090909
vt 0.545455 0.181818
vt 0.545455 0.272727
vt 0.545455 0.363636
vt 0.545455 0.454545
vt 0.545455 0.545455
vt 0.454545 0.636364
vt 0.545455 0.727273
vt 0.545455 0.818182
vt 0.636364 0.000000
vt 0.636364 0.090909
vt 0.636364 0.181818
vt 0.636364 0.272727
vt 0.636364 0.363636
vt 0.636364 0.454545
vt 0.636364 0.545455
vt 0.545455 0.636364
vt 0.636364 0.636364
vt 0.636364 0.818182
vt 0.727273 0.000000
vt 0.727273 0.090909
vt 0.727273 0.181818
vt 0.727273 0.363636
vt 0.727273 0.454545
vt 0.727273 0.545455
vt 0.727273 0.636364
vt 0.727273 0.727273
vt 0.636364 0.727273
vt 0.727273 0.818182
vt 0.818182 0.000000
vt 0.818182 0.181818
vt 0.818182 0.272727
vt 0.727273 0.272727
vt 0.818182 0.363636
vt 0.818182 0.454545
vt 0.818182 0.545455
vt 0.818182 0.636364
vt 0.818182 0.727273
vt 0.818182 0.818182
vt 0.909091 0.000000
vt 0.818182 0.090909
vt 0.909091 0.181818
vt 0.909091 0.272727
vt 0.909091 0.363636
vt 0.909091 0.454545
vt 0.909091 0.545455
vt 0.909091 0.636364
vt 0.909091 0.727273
vt 0.909091 0.818182
vt 1.000000 0.090909
vt 0.909091 0.090909
vt 1.000000 0.181818
vt 1.000000 0.363636
vt 1.000000 0.454545
vt 1.000000 0.545455
vt 1.000000 0.636364
vt 1.000000 0.727273
vt 1.000000 0.818182
vt 1.000000 1.000000
vt 1.000000 0.000000
vt 1.000000 0.272727
vn 0.2304 0.9606 -0.1556
vn 0.1590 0.9683 -0.1925
vn 0.2970 0.9055 -0.3032
vn -0.2141 0.9697 -0.1174
vn -0.1347 0.9807 -0.1419
vn -0.2754 0.9416 -0.1938
vn -0.0868 0.9925 -0.0856
vn 0.0545 0.9922 -0.1120
vn 0.0388 0.9934 -0.1083
vn 0.1188 0.9804 -0.1571
vn 0.0981 0.9820 -0.1615
vn 0.0805 0.9732 -0.2153
vn 0.0690 0.9811 -0.1807
vn 0.0003 0.9785 -0.2064
vn -0.0041 0.9864 -0.1644
vn -0.0379 0.9721 -0.2314
vn -0.0782 0.9793 -0.1867
vn -0.0453 0.9559 -0.2901
vn -0.1322 0.9577 -0.2556
vn -0.0071 0.9156 -0.4021
vn 0.1790 0.9312 -0.3175
vn -0.0335 0.9593 -0.2803
vn 0.1524 0.9139 -0.3762
vn -0.0559 0.9758 0.2114
vn -0.1275 0.9813 0.1446
vn -0.1157 0.9724 0.2024
vn -0.0577 0.9939 0.0943
vn -0.0650 0.9972 0.0361
vn -0.0851 0.9958 0.0342
vn -0.0242 0.9994 0.0245
vn -0.0967 0.9953 0.0009
vn -0.0598 0.9978 -0.0299
vn -0.1320 0.9910 0.0220
vn -0.1296 0.9915 0.0069
vn -0.1302 0.9850 0.1134
vn -0.2698 0.9625 0.0295
vn -0.1917 0.9795 0.0623
vn -0.3330 0.9424 0.0320
vn -0.1890 0.9797 -0.0672
vn -0.2640 0.9645 -0.0071
vn -0.1114 0.9903 -0.0825
vn -0.1738 0.9843 -0.0320
vn 0.0622 0.9869 0.1486
vn 0.0154 0.9967 0.0792
vn -0.0493 0.9957 0.0788
vn -0.1431 0.9893 0.0272
vn -0.1112 0.9932 0.0355
vn -0.0889 0.9958 0.0231
vn 0.0175 0.9971 0.0737
vn -0.0064 0.9983 -0.0587
vn 0.0025 0.9923 -0.1241
vn 0.0742 0.9682 0.2388
vn 0.1482 0.9672 0.2063
vn 0.0279 0.9940 0.1056
vn 0.0049 0.9926 0.1211
vn 0.0052 0.9955 0.0948
vn -0.0008 0.9947 0.1031
vn -0.1408 0.9899 -0.0166
vn -0.0084 0.9998 -0.0174
vn 0.0348 0.9988 -0.0348
vn 0.0866 0.9944 -0.0600
vn 0.0648 0.9904 -0.1222
vn 0.1654 0.9623 0.2161
vn 0.1549 0.9467 0.2823
vn 0.1101 0.9437 0.3120
vn 0.0392 0.9806 0.1918
vn -0.0009 0.9961 0.0880
vn 0.0141 0.9994 0.0317
vn 0.0009 0.9984 -0.0564
vn 0.0101 0.9967 -0.0802
vn 0.0821 0.9922 -0.0934
vn 0.0888 0.9914 0.0957
vn -0.0155 0.9713 0.2372
vn 0.0773 0.9520 0.2963
vn 0.0735 0.9761 0.2044
vn 0.0119 0.9960 0.0887
vn 0.0284 0.9995 0.0159
vn -0.0208 0.9997 0.0107
vn 0.0316 0.9995 0.0017
vn -0.0518 0.9967 -0.0629
vn -0.0241 0.9924 -0.1206
vn -0.0969 0.9863 0.1337
vn 0.0067 0.9974 0.0715
vn -0.0815 0.9786 0.1887
vn -0.0538 0.9726 0.2261
vn -0.0724 0.9867 0.1452
vn -0.0117 0.9995 -0.0287
vn 0.1158 0.9932 0.0099
vn 0.0907 0.9958 -0.0099
vn 0.0006 0.9993 -0.0362
vn -0.0151 0.9992 0.0362
vn -0.1118 0.9832 -0.1441
vn -0.1498 0.9797 0.1330
vn -0.1290 0.9771 0.1694
vn -0.0452 0.9802 0.1929
vn 0.0376 0.9993 0.0059
vn 0.0224 0.9854 -0.1687
vn 0.0330 0.9994 0.0144
vn 0.0524 0.9985 -0.0135
vn 0.0433 0.9991 0.0045
vn 0.0842 0.9864 0.1411
vn -0.1257 0.9868 -0.1021
vn -0.1738 0.9802 0.0951
vn -0.1109 0.9895 0.0926
vn 0.0516 0.9941 0.0952
vn 0.1660 0.9811 -0.0990
vn 0.0283 0.9992 0.0300
vn -0.1173 0.9910 0.0648
vn -0.0874 0.9961 -0.0074
vn 0.0219 0.9734 0.2280
vn 0.0201 0.9891 0.1460
vn -0.0074 0.9981 0.0615
vn -0.1525 0.9856 0.0732
vn -0.0984 0.9951 0.0059
vn 0.0236 0.9986 -0.0479
vn 0.1670 0.9854 0.0321
vn 0.1521 0.9869 -0.0530
vn 0.1179 0.9913 0.0584
vn 0.0706 0.9748 0.2114
vn -0.0323 0.9994 0.0115
vn -0.0714 0.9960 0.0544
vn 0.0565 0.9976 -0.0400
vn -0.0031 0.9872 0.1595
vn -0.1694 0.9848 0.0388
vn 0.0015 0.9990 -0.0449
vn 0.0781 0.9900 -0.1173
vn 0.1019 0.9874 -0.1214
vn 0.1161 0.9932 -0.0108
vn 0.1931 0.9724 0.1313
vn 0.2695 0.9546 0.1266
vn 0.1985 0.9801 0.0008
vn 0.3103 0.9344 -0.1750
vn 0.1661 0.9840 0.0652
vn -0.0499 0.9977 0.0448
vn 0.1924 0.9768 -0.0945
vn 0.1782 0.9784 -0.1052
vn 0.1663 0.9857 -0.0255
vn 0.3010 0.9505 0.0774
vn 0.3757 0.9255 0.0476
vn 0.3968 0.9179 -0.0080
vn 0.4266 0.8833 -0.1944
vn 0.0936 0.9942 -0.0535
vn 0.2381 0.9329 0.2701
vn 0.3106 0.9428 -0.1211
usemtl None
s 1
f 34/1/1 35/2/2 144/3/3
f 5/4/4 44/5/5 3/6/6
f 54/7/7 43/8/8 44/5/5
f 64/9/9 42/10/10 43/8/8
f 74/11/11 41/12/12 42/10/10
f 84/13/13 40/14/14 41/12/12
f 94/15/15 39/16/16 40/14/14
f 104/17/17 38/18/18 39/16/16
f 114/19/19 37/20/20 38/18/18
f 134/21/21 37/20/20 124/22/22
f 144/3/3 36/23/23 134/21/21
f 15/24/24 14/25/25 1/26/26
f 45/27/27 13/28/28 14/25/25
f 46/29/29 12/30/30 13/28/28
f 12/30/30 48/31/31 11/32/32
f 11/32/32 49/33/33 10/34/34
f 10/34/34 50/35/35 9/36/36
f 9/36/36 51/37/37 8/38/38
f 8/38/38 52/39/39 7/40/40
f 7/40/40 53/41/41 6/42/42
f 6/42/42 54/7/7 5/4/4
f 15/24/24 55/43/43 45/27/27
f 45/27/27 56/44/44 46/29/29
f 46/29/29 57/45/45 47/46/46
f 47/46/46 58/47/47 48/31/31
f 58/47/47 49/33/33 48/31/31
f 49/33/33 60/48/48 50/35/35
f 50/35/35 61/49/49 51/37/37
f 51/37/37 62/50/50 52/39/39
f 52/39/39 63/51/51 53/41/41
f 53/41/41 64/9/9 54/7/7
f 16/52/52 65/53/53 55/43/43
f 55/43/43 66/54/54 56/44/44
f 56/44/44 67/55/55 57/45/45
f 57/45/45 68/56/56 58/47/47
f 58/47/47 69/57/57 59/58/58
f 59/58/58 70/59/59 60/48/48
f 60/48/48 71/60/60 61/49/49
f 61/49/49 72/61/61 62/50/50
f 72/61/61 63/51/51 62/50/50
f 73/62/62 64/9/9 63/51/51
f 17/63/63 75/64/64 65/53/53
f 65/53/53 76/65/65 66/54/54
f 66/54/54 77/66/66 67/55/55
f 67/55/55 78/67/67 68/56/56
f 68/56/56 79/68/68 69/57/57
f 79/68/68 70/59/59 69/57/57
f 70/59/59 81/69/69 71/60/60
f 71/60/60 82/70/70 72/61/61
f 72/61/61 83/71/71 73/62/62
f 73/62/62 84/13/13 74/11/11
f 18/72/72 85/73/73 75/64/64
f 75/64/64 86/74/74 76/65/65
f 86/74/74 77/66/66 76/65/65
f 87/75/75 78/67/67 77/66/66
f 88/76/76 79/68/68 78/67/67
f 89/77/77 80/78/78 79/68/68
f 90/79/79 81/69/69 80/78/78
f 81/69/69 92/80/80 82/70/70
f 82/70/70 93/81/81 83/71/71
f 83/71/71 94/15/15 84/13/13
f 20/82/82 85/73/73 19/83/83
f 95/84/84 86/74/74 85/73/73
f 96/85/85 87/75/75 86/74/74
f 97/86/86 88/76/76 87/75/75
f 98/87/87 89/77/77 88/76/76
f 99/88/88 90/79/79 89/77/77
f 100/89/89 91/90/90 90/79/79
f 91/90/90 102/91/91 92/80/80
f 92/80/80 103/92/92 93/81/81
f 93/81/81 104/17/17 94/15/15
f 21/93/93 95/84/84 20/82/82
f 105/94/94 96/85/85 95/84/84
f 106/95/95 97/86/86 96/85/85
f 107/96/96 98/87/87 97/86/86
f 108/97/97 99/88/88 98/87/87
f 109/98/98 100/89/89 99/88/88
f 110/99/99 101/100/100 100/89/89
f 111/101/101 102/91/91 101/100/100
f 102/91/91 113/102/102 103/92/92
f 103/92/92 114/19/19 104/17/17
f 22/103/103 105/94/94 21/93/93
f 115/104/104 106/95/95 105/94/94
f 116/105/105 107/96/96 106/95/95
f 107/96/96 118/106/106 108/97/97
f 108/97/97 119/107/107 109/98/98
f 109/98/98 120/108/108 110/99/99
f 110/99/99 121/109/109 111/101/101
f 111/101/101 122/110/110 112/111/111
f 112/111/111 123/112/112 113/102/102
f 113/102/102 124/22/22 114/19/19
f 23/113/113 115/104/104 22/103/103
f 115/104/104 126/114/114 116/105/105
f 116/105/105 127/115/115 117/116/116
f 117/116/116 128/117/117 118/106/106
f 118/106/106 129/118/118 119/107/107
f 119/107/107 130/119/119 120/108/108
f 120/108/108 131/120/120 121/109/109
f 121/109/109 132/121/121 122/110/110
f 132/121/121 123/112/112 122/110/110
f 133/122/122 124/22/22 123/112/112
f 24/123/123 125/124/124 23/113/113
f 125/124/124 136/125/125 126/114/114
f 126/114/114 137/126/126 127/115/115
f 127/115/115 138/127/127 128/117/117
f 128/117/117 139/128/128 129/118/118
f 129/118/118 140/129/129 130/119/119
f 130/119/119 141/130/130 131/120/120
f 131/120/120 142/131/131 132/121/121
f 142/131/131 133/122/122 132/121/121
f 143/132/132 134/21/21 133/122/122
f 24/123/123 25/133/133 135/134/134
f 25/133/133 136/125/125 135/134/134
f 26/135/135 137/126/126 136/125/125
f 137/126/126 28/136/136 138/127/127
f 138/127/127 29/137/137 139/128/128
f 29/137/137 140/129/129 139/128/128
f 30/138/138 141/130/130 140/129/129
f 31/139/139 142/131/131 141/130/130
f 32/140/140 143/132/132 142/131/131
f 33/141/141 144/3/3 143/132/132
f 34/1/1 4/142/142 35/2/2
f 5/4/4 54/7/7 44/5/5
f 54/7/7 64/9/9 43/8/8
f 64/9/9 74/11/11 42/10/10
f 74/11/11 84/13/13 41/12/12
f 84/13/13 94/15/15 40/14/14
f 94/15/15 104/17/17 39/16/16
f 104/17/17 114/19/19 38/18/18
f 114/19/19 124/22/22 37/20/20
f 134/21/21 36/23/23 37/20/20
f 144/3/3 35/2/2 36/23/23
f 15/24/24 45/27/27 14/25/25
f 45/27/27 46/29/29 13/28/28
f 46/29/29 47/46/46 12/30/30
f 12/30/30 47/46/46 48/31/31
f 11/32/32 48/31/31 49/33/33
f 10/34/34 49/33/33 50/35/35
f 9/36/36 50/35/35 51/37/37
f 8/38/38 51/37/37 52/39/39
f 7/40/40 52/39/39 53/41/41
f 6/42/42 53/41/41 54/7/7
f 15/24/24 16/52/52 55/43/43
f 45/27/27 55/43/43 56/44/44
f 46/29/29 56/44/44 57/45/45
f 47/46/46 57/45/45 58/47/47
f 58/47/47 59/58/58 49/33/33
f 49/33/33 59/58/58 60/48/48
f 50/35/35 60/48/48 61/49/49
f 51/37/37 61/49/49 62/50/50
f 52/39/39 62/50/50 63/51/51
f 53/41/41 63/51/51 64/9/9
f 16/52/52 17/63/63 65/53/53
f 55/43/43 65/53/53 66/54/54
f 56/44/44 66/54/54 67/55/55
f 57/45/45 67/55/55 68/56/56
f 58/47/47 68/56/56 69/57/57
f 59/58/58 69/57/57 70/59/59
f 60/48/48 70/59/59 71/60/60
f 61/49/49 71/60/60 72/61/61
f 72/61/61 73/62/62 63/51/51
f 73/62/62 74/11/11 64/9/9
f 17/63/63 18/72/72 75/64/64
f 65/53/53 75/64/64 76/65/65
f 66/54/54 76/65/65 77/66/66
f 67/55/55 77/66/66 78/67/67
f 68/56/56 78/67/67 79/68/68
f 79/68/68 80/78/78 70/59/59
f 70/59/59 80/78/78 81/69/69
f 71/60/60 81/69/69 82/70/70
f 72/61/61 82/70/70 83/71/71
f 73/62/62 83/71/71 84/13/13
f 18/72/72 19/83/83 85/73/73
f 75/64/64 85/73/73 86/74/74
f 86/74/74 87/75/75 77/66/66
f 87/75/75 88/76/76 78/67/67
f 88/76/76 89/77/77 79/68/68
f 89/77/77 90/79/79 80/78/78
f 90/79/79 91/90/90 81/69/69
f 81/69/69 91/90/90 92/80/80
f 82/70/70 92/80/80 93/81/81
f 83/71/71 93/81/81 94/15/15
f 20/82/82 95/84/84 85/73/73
f 95/84/84 96/85/85 86/74/74
f 96/85/85 97/86/86 87/75/75
f 97/86/86 98/87/87 88/76/76
f 98/87/87 99/88/88 89/77/77
f 99/88/88 100/89/89 90/79/79
f 100/89/89 101/100/100 91/90/90
f 91/90/90 101/100/100 102/91/91
f 92/80/80 102/91/91 103/92/92
f 93/81/81 103/92/92 104/17/17
f 21/93/93 105/94/94 95/84/84
f 105/94/94 106/95/95 96/85/85
f 106/95/95 107/96/96 97/86/86
f 107/96/96 108/97/97 98/87/87
f 108/97/97 109/98/98 99/88/88
f 109/98/98 110/99/99 100/89/89
f 110/99/99 111/101/101 101/100/100
f 111/101/101 112/111/111 102/91/91
f 102/91/91 112/111/111 113/102/102
f 103/92/92 113/102/102 114/19/19
f 22/103/103 115/104/104 105/94/94
f 115/104/104 116/105/105 106/95/95
f 116/105/105 117/116/116 107/96/96
f 107/96/96 117/116/116 118/106/106
f 108/97/97 118/106/106 119/107/107
f 109/98/98 119/107/107 120/108/108
f 110/99/99 120/108/108 121/109/109
f 111/101/101 121/109/109 122/110/110
f 112/111/111 122/110/110 123/112/112
f 113/102/102 123/112/112 124/22/22
f 23/113/113 125/124/124 115/104/104
f 115/104/104 125/124/124 126/114/114
f 116/105/105 126/114/114 127/115/115
f 117/116/116 127/115/115 128/117/117
f 118/106/106 128/117/117 129/118/118
f 119/107/107 129/118/118 130/119/119
f 120/108/108 130/119/119 131/120/120
f 121/109/109 131/120/120 132/121/121
f 132/121/121 133/122/122 123/112/112
f 133/122/122 134/21/21 124/22/22
f 24/123/123 135/134/134 125/124/124
f 125/124/124 135/134/134 136/125/125
f 126/114/114 136/125/125 137/126/126
f 127/115/115 137/126/126 138/127/127
f 128/117/117 138/127/127 139/128/128
f 129/118/118 139/128/128 140/129/129
f 130/119/119 140/129/129 141/130/130
f 131/120/120 141/130/130 142/131/131
f 142/131/131 143/132/132 133/122/122
f 143/132/132 144/3/3 134/21/21
f 24/123/123 2/143/143 25/133/133
f 25/133/133 26/135/135 136/125/125
f 26/135/135 27/144/144 137/126/126
f 137/126/126 27/144/144 28/136/136
f 138/127/127 28/136/136 29/137/137
f 29/137/137 30/138/138 140/129/129
f 30/138/138 31/139/139 141/130/130
f 31/139/139 32/140/140 142/131/131
f 32/140/140 33/141/141 143/132/132
f 33/141/141 34/1/1 144/3/3
