# Blender v3.1.2 OBJ File: 'warped_archway.blend'
# www.blender.org
mtllib warped_archway_outer.mtl
o Cube
v 0.647394 0.844489 1.779065
v 0.648171 -2.982045 2.151808
v 0.709363 0.915902 2.433678
v 0.664594 -2.998657 2.306977
v -0.365853 0.432328 2.026797
v -0.607156 -3.197818 1.608701
v -0.508389 0.197726 2.884937
v -0.571419 -3.207649 2.566312
v 0.885319 1.402615 2.355126
v -0.167342 2.020625 2.544348
v 0.825964 1.201825 1.510522
v -0.503786 1.659840 1.746546
v 0.918760 2.795928 1.346349
v -0.192411 3.395928 0.848057
v 0.952539 2.178724 0.867699
v -0.570955 2.509147 0.917104
v 0.866348 2.929228 0.076846
v -0.567168 3.720003 0.082938
v 0.823990 2.815847 0.094488
v -0.421082 2.697860 0.206205
v 0.717860 -0.876668 -2.051334
v 0.788395 -2.713877 -2.076846
v 0.738271 -0.195421 -2.670219
v 0.796230 -2.163599 -2.680471
v -0.558215 0.196403 -1.746387
v -0.539779 -2.987749 -2.020333
v -0.529434 0.234490 -3.120491
v -0.582052 -3.192422 -2.953756
v 0.863061 1.766774 -2.437051
v -0.547794 2.079888 -2.869729
v 0.810009 1.741567 -1.814929
v -0.427862 1.309528 -1.877600
v 0.610907 3.073810 -1.703358
v -0.482877 3.350197 -1.403843
v 0.890835 2.138638 -1.221524
v -0.383479 2.310348 -0.991036
v 0.701919 0.742347 -2.127160
v 0.574563 -3.149879 -1.613413
v 0.755258 0.571463 -2.557435
v 0.583919 -3.191470 -2.952874
v 0.836730 -0.925277 1.985887
v 0.777907 0.013721 2.480864
v 0.868464 1.702039 1.406959
v 1.000924 1.855473 2.116263
v 0.496224 0.798170 1.740209
v 0.539437 -3.146888 1.939127
v 0.541496 0.215789 2.770111
v 0.579392 -3.208660 2.557164
v 0.737394 1.432710 1.286194
v 0.887945 1.737966 2.634621
v 1.006440 2.583314 1.232458
v 1.054842 2.357859 1.039250
v 0.832229 2.710802 -0.414260
v 0.887507 2.973711 -0.470462
v 0.708033 2.660622 -0.126416
v 0.703977 3.253709 -0.186615
v 0.780464 1.378205 -2.306453
v 0.778853 1.130704 -2.740750
v 0.793247 2.685123 -1.698149
v 1.006026 2.118070 -1.371361
v 0.502719 0.291466 -1.760607
v 0.514445 0.240581 -3.147381
v 0.680847 1.180655 -1.864596
v 0.675958 2.057626 -2.720594
vt 0.728549 0.333660
vt 0.727939 0.488445
vt 0.637598 0.411665
vt 0.667493 0.311311
vt 0.972165 0.488450
vt 0.972165 0.366339
vt 0.426754 0.481166
vt 0.382207 0.261516
vt 0.451599 0.270955
vt 0.450467 0.481455
vt 0.549154 0.305364
vt 0.623136 0.282380
vt 0.451649 0.238598
vt 0.371200 0.222679
vt 0.365077 0.189717
vt 0.435757 0.183767
vt 0.380644 0.597991
vt 0.367574 0.499118
vt 0.395459 0.503420
vt 0.413741 0.630121
vt 0.406652 0.157237
vt 0.349560 0.163655
vt 0.299448 0.131390
vt 0.323745 0.105595
vt 0.367869 0.791145
vt 0.367574 0.692584
vt 0.476533 0.663523
vt 0.476533 0.817917
vt 0.241329 0.117343
vt 0.246101 0.099954
vt 0.487697 0.244218
vt 0.609810 0.244220
vt 0.632469 0.683117
vt 0.487697 0.719368
vt 0.490975 0.619353
vt 0.638664 0.598414
vt 0.739102 0.173118
vt 0.677718 0.156357
vt 0.605826 0.038705
vt 0.727939 0.000000
vt 0.972165 0.000005
vt 0.961001 0.071109
vt 0.076558 0.470428
vt 0.033636 0.471151
vt 0.039164 0.284346
vt 0.100003 0.285093
vt 0.612300 0.194162
vt 0.517383 0.145003
vt 0.055527 0.232462
vt 0.078421 0.192130
vt 0.096554 0.211856
vt 0.099344 0.233918
vt 0.092362 0.135041
vt 0.131115 0.033647
vt 0.167140 0.144128
vt 0.123976 0.185419
vt 0.220470 0.081351
vt 0.212217 0.125339
vt 0.641939 0.531220
vt 0.518673 0.488450
vt 0.245480 0.828706
vt 0.274341 0.712197
vt 0.324123 0.708701
vt 0.314995 0.828706
vt 0.633311 0.820407
vt 0.488539 0.856658
vt 0.641939 0.933953
vt 0.519936 0.934078
vt 0.122859 0.558692
vt 0.009318 0.580311
vt 0.008501 0.532498
vt 0.122932 0.499118
vt 0.122932 0.782307
vt 0.000000 0.792566
vt 0.765884 0.620884
vt 0.785962 0.497689
vt 0.864960 0.488450
vt 0.864959 0.608801
vt 0.367574 0.708701
vt 0.245480 0.707583
vt 0.245480 0.499118
vt 0.367574 0.500236
vt 0.470351 0.513263
vt 0.470351 0.663523
vt 0.642202 0.646264
vt 0.644841 0.523802
vt 0.765884 0.488450
vt 0.739265 0.630786
vt 0.641939 0.773881
vt 0.763989 0.774472
vt 0.891645 0.620884
vt 0.891645 0.771262
vt 0.845476 0.782186
vt 0.850291 0.657233
vt 0.245480 0.741671
vt 0.123829 0.734349
vt 0.122932 0.506009
vt 0.245480 0.499118
vt 0.794312 0.629453
vt 0.845476 0.620884
vt 0.845476 0.741235
vt 0.765885 0.751378
vt 0.765884 1.000000
vt 0.643834 0.999409
vt 0.362910 0.709700
vt 0.365235 0.800398
vt 0.143363 0.258466
vt 0.102283 0.497039
vt 0.003594 0.499118
vt 0.000000 0.256387
vt 0.484103 0.256387
vt 0.344151 0.237726
vt 0.346953 0.175163
vt 0.448398 0.170888
vt 0.392521 0.497238
vt 0.487697 0.499118
vt 0.341742 0.082986
vt 0.278330 0.152225
vt 0.214279 0.157999
vt 0.241364 0.054743
vt 0.122597 0.204897
vt 0.078038 0.139514
vt 0.119680 0.000000
vt 0.180354 0.174937
vn -0.9965 0.0722 0.0433
vn -0.9979 0.0641 0.0103
vn -0.9566 0.2018 0.2102
vn -0.9507 0.2158 0.2226
vn -0.9975 0.0486 -0.0521
vn 0.9535 -0.3014 -0.0007
vn 0.9966 -0.0149 0.0809
vn 0.9586 0.1881 0.2138
vn 0.9559 -0.2277 0.1856
vn -0.9503 0.2010 0.2379
vn -0.9236 0.2632 0.2787
vn 0.9391 -0.3436 -0.0054
vn 0.9022 -0.4205 -0.0963
vn 0.9953 -0.0419 -0.0877
vn 0.9930 -0.1175 -0.0115
vn 0.0057 -0.9293 0.3693
vn 0.0008 -0.8212 0.5707
vn -0.0008 -0.7765 0.6301
vn 0.9842 -0.1347 0.1149
vn 0.9266 -0.3694 -0.0708
vn 0.9784 -0.1399 -0.1524
vn 0.9828 0.1798 0.0410
vn -0.2674 -0.1333 -0.9543
vn 0.9369 -0.0797 -0.3403
vn 0.9570 0.1674 -0.2367
vn -0.9709 0.1380 0.1959
vn 0.3244 0.8856 0.3323
vn 0.2220 0.8300 0.5116
vn 0.3829 0.9001 0.2080
vn -0.9994 0.0200 0.0274
vn -0.9977 0.0009 0.0682
vn -0.9971 -0.0120 0.0747
vn -0.9994 0.0203 0.0278
vn -1.0000 0.0051 0.0055
vn 0.9789 -0.1248 0.1616
vn 0.9727 -0.0388 -0.2289
vn 0.9781 0.1444 -0.1502
vn 0.9629 0.0740 0.2594
vn -0.9956 -0.0809 0.0468
vn -0.9955 -0.0876 0.0371
vn 0.9490 -0.3136 -0.0331
vn 0.9421 0.0265 -0.3343
vn 0.9735 0.1486 0.1738
vn 0.9666 -0.1440 0.2122
vn 0.9393 -0.1624 -0.3021
vn 0.9355 0.2973 -0.1911
vn 0.9891 -0.1405 0.0430
vn 0.9556 -0.2833 -0.0811
vn 0.9557 0.2787 0.0952
vn 0.9396 -0.1381 0.3133
vn -0.9926 -0.1210 -0.0109
vn 0.1835 0.9035 -0.3874
vn 0.2565 0.9506 -0.1747
vn 0.1400 0.8582 -0.4939
vn -0.2764 -0.4860 -0.8291
vn -0.2793 -0.4678 -0.8386
vn -0.2271 -0.7800 -0.5831
vn -0.2304 -0.7662 -0.5999
vn 0.1425 0.7670 0.6256
vn 0.0440 0.0201 0.9988
vn 0.0418 0.0367 0.9985
vn 0.0285 0.1351 0.9904
vn -0.1555 -0.2157 -0.9640
vn -0.1068 -0.1150 -0.9876
vn 0.2546 -0.0076 -0.9670
vn 0.0159 0.0285 -0.9995
vn 0.0282 -0.9985 -0.0467
vn 0.0567 -0.0777 0.9954
vn -0.0056 -0.6150 0.7885
vn 0.0554 0.4721 -0.8798
vn 0.0553 0.4937 -0.8679
vn 0.0213 0.0634 -0.9978
vn 0.0222 0.0666 -0.9975
vn 0.0024 0.1163 0.9932
vn -0.0972 0.0412 0.9944
vn -0.0789 0.0552 0.9954
vn -0.1783 -0.0212 0.9838
vn -0.0894 -0.9901 0.1086
vn -0.0116 -0.0526 -0.9985
vn -0.1780 -0.9191 -0.3516
vn 0.9570 0.2292 0.1779
vn 0.9683 -0.1328 0.2118
vn 0.9589 -0.2263 -0.1712
vn 0.9662 0.1482 -0.2111
vn 0.9201 -0.3822 -0.0853
vn 0.8725 -0.4494 -0.1919
vn 0.9782 0.1612 -0.1308
vn 0.9982 -0.0601 0.0059
vn 0.2883 -0.6405 -0.7118
vn 0.5971 -0.0631 -0.7997
vn 0.8683 0.2923 0.4008
vn 0.8585 -0.0408 0.5112
vn 0.9466 0.3217 -0.0193
vn 0.8781 -0.4654 -0.1112
vn 0.8467 -0.5320 0.0021
vn 0.8876 -0.4526 -0.0857
vn 0.9244 0.3592 0.1285
vn 0.9249 0.2859 0.2505
vn 0.9228 -0.2892 -0.2545
vn 0.8877 -0.1576 -0.4326
vn 0.8463 -0.1035 -0.5225
vn 0.9058 0.4237 0.0071
vn 0.8824 0.0112 0.4705
vn 0.8750 -0.1535 0.4592
vn 0.8528 -0.4998 -0.1513
vn 0.7835 -0.5414 -0.3049
vn 0.8837 0.3469 -0.3143
vn 0.8615 0.4642 -0.2057
vn 0.8315 -0.4551 0.3187
vn 0.8409 0.5211 -0.1463
vn 0.9205 -0.3328 0.2048
vn 0.9123 -0.3161 -0.2604
vn 0.9743 0.1769 -0.1398
vn 0.9659 -0.0206 0.2582
usemtl Material
s 1
f 5/1/1 7/2/2 10/3/3 12/4/4
f 8/5/5 7/2/2 5/1/1 6/6/5
f 2/7/6 41/8/7 42/9/8 4/10/9
f 12/4/4 10/3/3 14/11/10 16/12/11
f 3/13/12 1/14/13 11/15/14 9/16/15
f 55/17/16 20/18/16 36/19/17 35/20/18
f 44/21/19 43/22/20 52/23/21 51/24/22
f 55/25/23 20/26/23 18/27/23 56/28/23
f 51/24/22 52/23/21 19/29/24 17/30/25
f 16/12/11 14/11/10 18/31/26 20/32/26
f 14/33/27 13/34/28 56/35/29 18/36/29
f 25/37/30 32/38/31 30/39/32 27/40/33
f 28/41/34 26/42/34 25/37/30 27/40/33
f 22/43/35 24/44/36 23/45/37 21/46/38
f 32/38/31 36/47/39 34/48/40 30/39/32
f 39/49/41 58/50/42 57/51/43 37/52/44
f 29/53/45 59/54/46 60/55/47 31/56/48
f 59/54/46 54/57/49 53/58/50 60/55/47
f 36/47/39 20/32/51 18/31/51 34/48/40
f 34/59/52 18/36/53 56/35/53 33/60/54
f 49/61/55 12/62/56 16/63/57 15/64/58
f 10/65/59 50/66/59 13/34/28 14/33/27
f 7/67/60 47/68/61 50/66/62 10/65/62
f 45/69/63 5/70/64 12/71/56 49/72/55
f 5/70/64 45/69/63 46/73/65 6/74/66
f 6/75/67 46/76/67 48/77/67 8/78/67
f 47/79/61 7/80/60 8/81/68 48/82/68
f 35/20/18 36/19/17 32/83/69 63/84/69
f 30/85/70 34/86/52 33/87/54 64/88/71
f 27/89/72 30/85/70 64/88/71 62/90/73
f 63/91/74 32/92/74 25/93/75 61/94/76
f 26/95/77 38/96/77 61/97/76 25/98/75
f 26/99/78 28/100/78 40/101/78 38/102/78
f 40/103/79 28/104/79 27/89/72 62/90/73
f 15/64/58 16/63/57 20/105/80 55/106/80
f 22/43/35 21/46/38 61/107/81 38/108/82
f 23/45/37 24/44/36 40/109/83 62/110/84
f 21/46/38 23/45/37 62/110/84 61/107/81
f 24/44/36 22/43/35 38/108/82 40/109/83
f 1/14/13 3/13/12 47/111/85 45/112/86
f 9/16/15 11/15/14 49/113/87 50/114/88
f 11/15/89 1/14/89 45/112/89 49/113/89
f 3/13/12 9/16/15 50/114/88 47/111/85
f 41/8/90 2/7/90 46/115/65 45/112/63
f 4/10/9 42/9/8 47/111/91 48/116/92
f 42/9/8 45/112/93 47/111/91
f 2/7/6 4/10/9 48/116/94 46/115/94
f 42/9/8 41/8/7 45/112/93
f 43/22/20 44/21/19 50/114/95 49/113/96
f 44/21/19 51/24/22 13/117/97 50/114/98
f 52/23/21 43/22/20 49/113/96 15/118/99
f 17/30/25 19/29/24 55/119/100 56/120/101
f 19/29/24 52/23/21 15/118/99 55/119/100
f 51/24/22 17/30/25 56/120/102 13/117/97
f 53/58/50 54/57/49 56/120/103 55/119/104
f 29/53/45 31/56/48 63/121/105 64/122/106
f 59/54/46 29/53/45 64/122/107 33/123/108
f 31/56/48 60/55/47 35/124/109 63/121/105
f 60/55/47 53/58/50 55/119/104 35/124/109
f 54/57/49 59/54/46 33/123/108 56/120/110
f 39/49/41 61/107/111 62/110/112
f 57/51/43 64/122/113 63/121/114
f 37/52/44 63/121/114 61/107/111
f 58/50/42 62/110/112 64/122/113
f 57/51/43 58/50/42 64/122/113
f 58/50/42 39/49/41 62/110/112
f 39/49/41 37/52/44 61/107/111
f 37/52/44 57/51/43 63/121/114
